#tb 0: 1001/30000
0,          0,          0,        1,  2073600, 0x53fab433
0,          1,          1,        1,  2073600, 0x0d2b3f64
0,          2,          2,        1,  2073600, 0x857d1d48
0,          3,          3,        1,  2073600, 0xe1a7df32
0,          4,          4,        1,  2073600, 0x615861c1
0,          5,          5,        1,  2073600, 0xf6cdb0a9
0,          6,          6,        1,  2073600, 0x55dd9f16
0,          7,          7,        1,  2073600, 0x7c126a32
0,          8,          8,        1,  2073600, 0x53fdd4c5
0,          9,          9,        1,  2073600, 0x6062a4b3
0,         10,         10,        1,  2073600, 0xdae9adb8
0,         11,         11,        1,  2073600, 0xe8a71cfd
0,         12,         12,        1,  2073600, 0xecb2ee7f
0,         13,         13,        1,  2073600, 0xd896968a
0,         14,         14,        1,  2073600, 0x29d011e4
0,         15,         15,        1,  2073600, 0xbe68a4ac
0,         16,         16,        1,  2073600, 0x9127182f
0,         17,         17,        1,  2073600, 0x6dfd34ec
0,         18,         18,        1,  2073600, 0xe0056951
0,         19,         19,        1,  2073600, 0x28e8227f
0,         20,         20,        1,  2073600, 0x9d5e46a4
0,         21,         21,        1,  2073600, 0xcf02aea0
0,         22,         22,        1,  2073600, 0xd5c47344
0,         23,         23,        1,  2073600, 0xd82ab45e
0,         24,         24,        1,  2073600, 0x3512ca3e
0,         25,         25,        1,  2073600, 0xa66b4e8f
0,         26,         26,        1,  2073600, 0x07dd71f0
0,         27,         27,        1,  2073600, 0x7bae0736
0,         28,         28,        1,  2073600, 0xd39ef4ae
0,         29,         29,        1,  2073600, 0x0fec6630
0,         30,         30,        1,  2073600, 0x2ecc4e06
0,         31,         31,        1,  2073600, 0x44f67220
0,         32,         32,        1,  2073600, 0xec0b92b0
0,         33,         33,        1,  2073600, 0x1db9bd9f
0,         34,         34,        1,  2073600, 0x40c65d2d
0,         35,         35,        1,  2073600, 0x8436e2b0
0,         36,         36,        1,  2073600, 0x0e313585
0,         37,         37,        1,  2073600, 0x6f69b737
0,         38,         38,        1,  2073600, 0x900159d0
0,         39,         39,        1,  2073600, 0x6e399962
0,         40,         40,        1,  2073600, 0xd290506f
0,         41,         41,        1,  2073600, 0x8f9a9061
0,         42,         42,        1,  2073600, 0x3772642e
0,         43,         43,        1,  2073600, 0x089bbb8d
0,         44,         44,        1,  2073600, 0xbf254000
0,         45,         45,        1,  2073600, 0x4fe8449c
0,         46,         46,        1,  2073600, 0xbbd0d34e
0,         47,         47,        1,  2073600, 0x610619ee
0,         48,         48,        1,  2073600, 0x131208c7
0,         49,         49,        1,  2073600, 0x130c1f61
0,         50,         50,        1,  2073600, 0x5f376b0f
0,         51,         51,        1,  2073600, 0xbc7c8a26
0,         52,         52,        1,  2073600, 0xd53854bd
0,         53,         53,        1,  2073600, 0x572fd25f
0,         54,         54,        1,  2073600, 0x02f90364
0,         55,         55,        1,  2073600, 0x75165e5b
0,         56,         56,        1,  2073600, 0x020666f2
0,         57,         57,        1,  2073600, 0xaef5c92a
0,         58,         58,        1,  2073600, 0x24c9db1e
0,         59,         59,        1,  2073600, 0xcecd2a4d
0,         60,         60,        1,  2073600, 0xda11db1d
0,         61,         61,        1,  2073600, 0x6d193cdf
0,         62,         62,        1,  2073600, 0x10a09015
0,         63,         63,        1,  2073600, 0x68e5610c
0,         64,         64,        1,  2073600, 0x7c079207
0,         65,         65,        1,  2073600, 0x44baa815
0,         66,         66,        1,  2073600, 0x18e31a2c
0,         67,         67,        1,  2073600, 0xc0cf73be
0,         68,         68,        1,  2073600, 0x71bc77db
0,         69,         69,        1,  2073600, 0x4565ec62
0,         70,         70,        1,  2073600, 0x21b93fec
0,         71,         71,        1,  2073600, 0x9dc03ac2
0,         72,         72,        1,  2073600, 0xcc4aa52d
0,         73,         73,        1,  2073600, 0xd1921e67
0,         74,         74,        1,  2073600, 0xeb18e8fe
0,         75,         75,        1,  2073600, 0xcb0c48be
0,         76,         76,        1,  2073600, 0x6b012d3f
0,         77,         77,        1,  2073600, 0x5f6839d3
0,         78,         78,        1,  2073600, 0xbdef58d6
0,         79,         79,        1,  2073600, 0x2b2cd4e9
0,         80,         80,        1,  2073600, 0x92ff69de
0,         81,         81,        1,  2073600, 0x90949724
0,         82,         82,        1,  2073600, 0x118a3217
0,         83,         83,        1,  2073600, 0xc9f51f59
0,         84,         84,        1,  2073600, 0x22d1ba31
0,         85,         85,        1,  2073600, 0x86241f53
0,         86,         86,        1,  2073600, 0xd36f1e75
0,         87,         87,        1,  2073600, 0xc6938d93
0,         88,         88,        1,  2073600, 0xf4abfd51
0,         89,         89,        1,  2073600, 0x49f214d6
0,         90,         90,        1,  2073600, 0x3f966bc8
0,         91,         91,        1,  2073600, 0x34ccd942
0,         92,         92,        1,  2073600, 0x8bb10358
0,         93,         93,        1,  2073600, 0xa3ab4788
0,         94,         94,        1,  2073600, 0xb8cd6a43
0,         95,         95,        1,  2073600, 0xb886d4b4
0,         96,         96,        1,  2073600, 0x73073e24
0,         97,         97,        1,  2073600, 0x29ccbcb4
0,         98,         98,        1,  2073600, 0xef3eef88
0,         99,         99,        1,  2073600, 0x24d4766f
0,        100,        100,        1,  2073600, 0x9ac40117
0,        101,        101,        1,  2073600, 0xb5653ea1
0,        102,        102,        1,  2073600, 0xf9b0bdce
0,        103,        103,        1,  2073600, 0x0cf565ea
0,        104,        104,        1,  2073600, 0x8d4f2e54
0,        105,        105,        1,  2073600, 0x0b1502d5
0,        106,        106,        1,  2073600, 0xd20734af
0,        107,        107,        1,  2073600, 0xc7da6fbd
0,        108,        108,        1,  2073600, 0x56cf700d
0,        109,        109,        1,  2073600, 0x3539220d
0,        110,        110,        1,  2073600, 0xc2cda644
0,        111,        111,        1,  2073600, 0x325ab4a5
0,        112,        112,        1,  2073600, 0x76be4d73
0,        113,        113,        1,  2073600, 0xb61a1329
0,        114,        114,        1,  2073600, 0x4a880bd1
0,        115,        115,        1,  2073600, 0x9aed108c
0,        116,        116,        1,  2073600, 0x6c5b4ab8
0,        117,        117,        1,  2073600, 0xf9963eeb
0,        118,        118,        1,  2073600, 0x2e1f9845
0,        119,        119,        1,  2073600, 0xde0c7d85
0,        120,        120,        1,  2073600, 0x62704bb0
0,        121,        121,        1,  2073600, 0x981549bf
0,        122,        122,        1,  2073600, 0xacd31fe5
0,        123,        123,        1,  2073600, 0xf28c760e
0,        124,        124,        1,  2073600, 0x7174053e
0,        125,        125,        1,  2073600, 0xe9f5d1ac
0,        126,        126,        1,  2073600, 0xf262b0e1
0,        127,        127,        1,  2073600, 0x04b2e353
0,        128,        128,        1,  2073600, 0xc8275930
0,        129,        129,        1,  2073600, 0x6b80e2ea
0,        130,        130,        1,  2073600, 0xb8948efe
0,        131,        131,        1,  2073600, 0x980dbb4c
0,        132,        132,        1,  2073600, 0xdacd414e
0,        133,        133,        1,  2073600, 0x69977a0e
0,        134,        134,        1,  2073600, 0xbf963288
0,        135,        135,        1,  2073600, 0x4ff636a6
0,        136,        136,        1,  2073600, 0x134642b0
0,        137,        137,        1,  2073600, 0xbf56a153
0,        138,        138,        1,  2073600, 0xdfe26565
0,        139,        139,        1,  2073600, 0x2d4898c5
0,        140,        140,        1,  2073600, 0x6d9dc6a9
0,        141,        141,        1,  2073600, 0xb1642327
0,        142,        142,        1,  2073600, 0x14374e29
0,        143,        143,        1,  2073600, 0x35c4feb2
0,        144,        144,        1,  2073600, 0x95f4ae69
0,        145,        145,        1,  2073600, 0x536fa0eb
0,        146,        146,        1,  2073600, 0x7168e281
0,        147,        147,        1,  2073600, 0x990eac38
0,        148,        148,        1,  2073600, 0xf87500a7
0,        149,        149,        1,  2073600, 0xe15bba45
0,        150,        150,        1,  2073600, 0xa4f97b08
0,        151,        151,        1,  2073600, 0xc401cf79
0,        152,        152,        1,  2073600, 0x66326ad2
0,        153,        153,        1,  2073600, 0x1690bc84
0,        154,        154,        1,  2073600, 0x2c37fc60
0,        155,        155,        1,  2073600, 0xacb192c8
0,        156,        156,        1,  2073600, 0xcdffa6b0
0,        157,        157,        1,  2073600, 0x8c34a2d4
0,        158,        158,        1,  2073600, 0xdd31d6de
0,        159,        159,        1,  2073600, 0x1089412f
0,        160,        160,        1,  2073600, 0x8b36cfd7
0,        161,        161,        1,  2073600, 0x8fd18b7b
0,        162,        162,        1,  2073600, 0x93fa6353
0,        163,        163,        1,  2073600, 0x2f61b89d
0,        164,        164,        1,  2073600, 0xa438caa8
0,        165,        165,        1,  2073600, 0xf0cabe37
0,        166,        166,        1,  2073600, 0x4eb5ea0b
0,        167,        167,        1,  2073600, 0x1f9b8836
0,        168,        168,        1,  2073600, 0xcbe6c950
0,        169,        169,        1,  2073600, 0xdfd5d36f
0,        170,        170,        1,  2073600, 0x30ed1370
0,        171,        171,        1,  2073600, 0x2c21087a
0,        172,        172,        1,  2073600, 0xd71e79f5
0,        173,        173,        1,  2073600, 0x3c4941a6
0,        174,        174,        1,  2073600, 0x9b9ddb8c
0,        175,        175,        1,  2073600, 0x0abe951a
0,        176,        176,        1,  2073600, 0x236bdb91
0,        177,        177,        1,  2073600, 0xdd983065
